<mxfile host="Electron" agent="Mozilla/5.0 (Windows NT 10.0; Win64; x64) AppleWebKit/537.36 (KHTML, like Gecko) draw.io/26.2.2 Chrome/134.0.6998.178 Electron/35.1.2 Safari/537.36" version="26.2.2">
  <diagram name="Страница — 1" id="GybtCsc6UfcFswe1FJvj">
    <mxGraphModel dx="1776" dy="1036" grid="1" gridSize="10" guides="1" tooltips="1" connect="1" arrows="1" fold="1" page="1" pageScale="1" pageWidth="827" pageHeight="1169" math="0" shadow="0">
      <root>
        <mxCell id="0" />
        <mxCell id="1" parent="0" />
        <mxCell id="bEcZVD-vaj6JLPjVV4eH-10" style="edgeStyle=entityRelationEdgeStyle;rounded=0;orthogonalLoop=1;jettySize=auto;html=1;entryX=0;entryY=0.5;entryDx=0;entryDy=0;" edge="1" parent="1" source="n08PQifGK1ORo_y623R5-1" target="n08PQifGK1ORo_y623R5-5">
          <mxGeometry relative="1" as="geometry" />
        </mxCell>
        <mxCell id="bEcZVD-vaj6JLPjVV4eH-11" style="edgeStyle=entityRelationEdgeStyle;rounded=0;orthogonalLoop=1;jettySize=auto;html=1;entryX=0;entryY=0.5;entryDx=0;entryDy=0;" edge="1" parent="1" source="n08PQifGK1ORo_y623R5-1" target="n08PQifGK1ORo_y623R5-6">
          <mxGeometry relative="1" as="geometry" />
        </mxCell>
        <mxCell id="bEcZVD-vaj6JLPjVV4eH-12" style="edgeStyle=entityRelationEdgeStyle;rounded=0;orthogonalLoop=1;jettySize=auto;html=1;entryX=0;entryY=0.5;entryDx=0;entryDy=0;" edge="1" parent="1" source="n08PQifGK1ORo_y623R5-1" target="n08PQifGK1ORo_y623R5-7">
          <mxGeometry relative="1" as="geometry" />
        </mxCell>
        <mxCell id="bEcZVD-vaj6JLPjVV4eH-13" style="edgeStyle=entityRelationEdgeStyle;rounded=0;orthogonalLoop=1;jettySize=auto;html=1;entryX=0;entryY=0.5;entryDx=0;entryDy=0;" edge="1" parent="1" source="n08PQifGK1ORo_y623R5-1" target="n08PQifGK1ORo_y623R5-4">
          <mxGeometry relative="1" as="geometry" />
        </mxCell>
        <mxCell id="n08PQifGK1ORo_y623R5-1" value="Безопасность данных" style="ellipse;whiteSpace=wrap;html=1;fillColor=#d5e8d4;strokeColor=#82b366;" parent="1" vertex="1">
          <mxGeometry x="310" y="460" width="120" height="80" as="geometry" />
        </mxCell>
        <mxCell id="DdrYIgBrap5mWLzCfkBp-25" value="" style="edgeStyle=orthogonalEdgeStyle;rounded=0;orthogonalLoop=1;jettySize=auto;html=1;" parent="1" source="n08PQifGK1ORo_y623R5-4" target="DdrYIgBrap5mWLzCfkBp-3" edge="1">
          <mxGeometry relative="1" as="geometry" />
        </mxCell>
        <mxCell id="n08PQifGK1ORo_y623R5-4" value="Публичные данные" style="rounded=1;whiteSpace=wrap;html=1;fillColor=#f5f5f5;fontColor=#333333;strokeColor=#666666;" parent="1" vertex="1">
          <mxGeometry x="530" y="160" width="120" height="60" as="geometry" />
        </mxCell>
        <mxCell id="bEcZVD-vaj6JLPjVV4eH-1" value="" style="edgeStyle=orthogonalEdgeStyle;rounded=0;orthogonalLoop=1;jettySize=auto;html=1;" edge="1" parent="1" source="n08PQifGK1ORo_y623R5-5" target="DdrYIgBrap5mWLzCfkBp-2">
          <mxGeometry relative="1" as="geometry" />
        </mxCell>
        <mxCell id="bEcZVD-vaj6JLPjVV4eH-30" style="edgeStyle=orthogonalEdgeStyle;rounded=0;orthogonalLoop=1;jettySize=auto;html=1;entryX=0;entryY=0.5;entryDx=0;entryDy=0;" edge="1" parent="1" source="n08PQifGK1ORo_y623R5-5" target="bEcZVD-vaj6JLPjVV4eH-29">
          <mxGeometry relative="1" as="geometry" />
        </mxCell>
        <mxCell id="n08PQifGK1ORo_y623R5-5" value="Внутренние данные" style="rounded=1;whiteSpace=wrap;html=1;fillColor=#f5f5f5;fontColor=#333333;strokeColor=#666666;" parent="1" vertex="1">
          <mxGeometry x="530" y="900" width="120" height="60" as="geometry" />
        </mxCell>
        <mxCell id="bEcZVD-vaj6JLPjVV4eH-14" style="edgeStyle=orthogonalEdgeStyle;rounded=0;orthogonalLoop=1;jettySize=auto;html=1;entryX=0;entryY=0.5;entryDx=0;entryDy=0;" edge="1" parent="1" source="n08PQifGK1ORo_y623R5-6" target="DdrYIgBrap5mWLzCfkBp-9">
          <mxGeometry relative="1" as="geometry" />
        </mxCell>
        <mxCell id="bEcZVD-vaj6JLPjVV4eH-15" style="edgeStyle=orthogonalEdgeStyle;rounded=0;orthogonalLoop=1;jettySize=auto;html=1;entryX=0;entryY=0.5;entryDx=0;entryDy=0;" edge="1" parent="1" source="n08PQifGK1ORo_y623R5-6" target="DdrYIgBrap5mWLzCfkBp-1">
          <mxGeometry relative="1" as="geometry" />
        </mxCell>
        <mxCell id="n08PQifGK1ORo_y623R5-6" value="Конфиденциальные данные" style="rounded=1;whiteSpace=wrap;html=1;fillColor=#f5f5f5;fontColor=#333333;strokeColor=#666666;" parent="1" vertex="1">
          <mxGeometry x="530" y="640" width="120" height="60" as="geometry" />
        </mxCell>
        <mxCell id="bEcZVD-vaj6JLPjVV4eH-4" value="" style="edgeStyle=orthogonalEdgeStyle;rounded=0;orthogonalLoop=1;jettySize=auto;html=1;exitX=1;exitY=0.5;exitDx=0;exitDy=0;" edge="1" parent="1" source="n08PQifGK1ORo_y623R5-7" target="DdrYIgBrap5mWLzCfkBp-19">
          <mxGeometry relative="1" as="geometry">
            <mxPoint x="720" y="410" as="sourcePoint" />
          </mxGeometry>
        </mxCell>
        <mxCell id="n08PQifGK1ORo_y623R5-7" value="Секретные данные" style="rounded=1;whiteSpace=wrap;html=1;fillColor=#f5f5f5;fontColor=#333333;strokeColor=#666666;" parent="1" vertex="1">
          <mxGeometry x="530" y="380" width="120" height="60" as="geometry" />
        </mxCell>
        <mxCell id="n08PQifGK1ORo_y623R5-21" value="искажение&amp;nbsp;&lt;div&gt;данных&lt;/div&gt;" style="shape=parallelogram;perimeter=parallelogramPerimeter;whiteSpace=wrap;html=1;fixedSize=1;" parent="1" vertex="1">
          <mxGeometry x="960" y="870" width="120" height="60" as="geometry" />
        </mxCell>
        <mxCell id="n08PQifGK1ORo_y623R5-24" value="обесценивание данных" style="shape=parallelogram;perimeter=parallelogramPerimeter;whiteSpace=wrap;html=1;fixedSize=1;" parent="1" vertex="1">
          <mxGeometry x="960" y="160" width="120" height="60" as="geometry" />
        </mxCell>
        <mxCell id="n08PQifGK1ORo_y623R5-25" value="утечка данных" style="shape=parallelogram;perimeter=parallelogramPerimeter;whiteSpace=wrap;html=1;fixedSize=1;" parent="1" vertex="1">
          <mxGeometry x="960" y="710" width="120" height="60" as="geometry" />
        </mxCell>
        <mxCell id="n08PQifGK1ORo_y623R5-34" value="незначительный" style="shape=hexagon;perimeter=hexagonPerimeter2;whiteSpace=wrap;html=1;fixedSize=1;fillColor=#dae8fc;strokeColor=#6c8ebf;" parent="1" vertex="1">
          <mxGeometry x="1324.5" y="160" width="100" height="60" as="geometry" />
        </mxCell>
        <mxCell id="n08PQifGK1ORo_y623R5-36" value="критический" style="shape=hexagon;perimeter=hexagonPerimeter2;whiteSpace=wrap;html=1;fixedSize=1;fillColor=#f8cecc;strokeColor=#b85450;size=30;" parent="1" vertex="1">
          <mxGeometry x="1325" y="430" width="100" height="60" as="geometry" />
        </mxCell>
        <mxCell id="bEcZVD-vaj6JLPjVV4eH-8" style="edgeStyle=orthogonalEdgeStyle;rounded=0;orthogonalLoop=1;jettySize=auto;html=1;entryX=0;entryY=0.5;entryDx=0;entryDy=0;" edge="1" parent="1" source="DdrYIgBrap5mWLzCfkBp-1" target="n08PQifGK1ORo_y623R5-25">
          <mxGeometry relative="1" as="geometry" />
        </mxCell>
        <mxCell id="DdrYIgBrap5mWLzCfkBp-1" value="Персональные данные клиентов" style="rounded=0;whiteSpace=wrap;html=1;" parent="1" vertex="1">
          <mxGeometry x="760" y="710" width="120" height="60" as="geometry" />
        </mxCell>
        <mxCell id="bEcZVD-vaj6JLPjVV4eH-2" value="" style="edgeStyle=orthogonalEdgeStyle;rounded=0;orthogonalLoop=1;jettySize=auto;html=1;" edge="1" parent="1" source="DdrYIgBrap5mWLzCfkBp-2" target="n08PQifGK1ORo_y623R5-21">
          <mxGeometry relative="1" as="geometry" />
        </mxCell>
        <mxCell id="DdrYIgBrap5mWLzCfkBp-2" value="Данные онлайн тура" style="rounded=0;whiteSpace=wrap;html=1;" parent="1" vertex="1">
          <mxGeometry x="760" y="870" width="120" height="60" as="geometry" />
        </mxCell>
        <mxCell id="DdrYIgBrap5mWLzCfkBp-26" value="" style="edgeStyle=orthogonalEdgeStyle;rounded=0;orthogonalLoop=1;jettySize=auto;html=1;" parent="1" source="DdrYIgBrap5mWLzCfkBp-3" target="n08PQifGK1ORo_y623R5-24" edge="1">
          <mxGeometry relative="1" as="geometry" />
        </mxCell>
        <mxCell id="DdrYIgBrap5mWLzCfkBp-3" value="Данные объектов продажи" style="rounded=0;whiteSpace=wrap;html=1;" parent="1" vertex="1">
          <mxGeometry x="760" y="160" width="120" height="60" as="geometry" />
        </mxCell>
        <mxCell id="DdrYIgBrap5mWLzCfkBp-4" value="критический" style="shape=hexagon;perimeter=hexagonPerimeter2;whiteSpace=wrap;html=1;fixedSize=1;fillColor=#f8cecc;strokeColor=#b85450;" parent="1" vertex="1">
          <mxGeometry x="1320" y="570" width="100" height="60" as="geometry" />
        </mxCell>
        <mxCell id="DdrYIgBrap5mWLzCfkBp-6" value="значительный" style="shape=hexagon;perimeter=hexagonPerimeter2;whiteSpace=wrap;html=1;fixedSize=1;fillColor=#ffe6cc;strokeColor=#d79b00;" parent="1" vertex="1">
          <mxGeometry x="1325" y="865" width="100" height="65" as="geometry" />
        </mxCell>
        <mxCell id="DdrYIgBrap5mWLzCfkBp-8" value="потеря данных" style="shape=parallelogram;perimeter=parallelogramPerimeter;whiteSpace=wrap;html=1;fixedSize=1;" parent="1" vertex="1">
          <mxGeometry x="960" y="320" width="120" height="60" as="geometry" />
        </mxCell>
        <mxCell id="DdrYIgBrap5mWLzCfkBp-17" value="" style="edgeStyle=orthogonalEdgeStyle;rounded=0;orthogonalLoop=1;jettySize=auto;html=1;" parent="1" source="DdrYIgBrap5mWLzCfkBp-9" target="DdrYIgBrap5mWLzCfkBp-10" edge="1">
          <mxGeometry relative="1" as="geometry" />
        </mxCell>
        <mxCell id="bEcZVD-vaj6JLPjVV4eH-5" style="edgeStyle=orthogonalEdgeStyle;rounded=0;orthogonalLoop=1;jettySize=auto;html=1;exitX=0.75;exitY=1;exitDx=0;exitDy=0;" edge="1" parent="1" source="DdrYIgBrap5mWLzCfkBp-9">
          <mxGeometry relative="1" as="geometry">
            <mxPoint x="850" y="619.9999999999998" as="targetPoint" />
          </mxGeometry>
        </mxCell>
        <mxCell id="DdrYIgBrap5mWLzCfkBp-9" value="Персональные данные собственников" style="rounded=0;whiteSpace=wrap;html=1;" parent="1" vertex="1">
          <mxGeometry x="760" y="570" width="120" height="60" as="geometry" />
        </mxCell>
        <mxCell id="DdrYIgBrap5mWLzCfkBp-10" value="утечка данных" style="shape=parallelogram;perimeter=parallelogramPerimeter;whiteSpace=wrap;html=1;fixedSize=1;" parent="1" vertex="1">
          <mxGeometry x="960" y="570" width="120" height="60" as="geometry" />
        </mxCell>
        <mxCell id="DdrYIgBrap5mWLzCfkBp-22" style="edgeStyle=orthogonalEdgeStyle;rounded=0;orthogonalLoop=1;jettySize=auto;html=1;" parent="1" source="DdrYIgBrap5mWLzCfkBp-19" target="DdrYIgBrap5mWLzCfkBp-8" edge="1">
          <mxGeometry relative="1" as="geometry" />
        </mxCell>
        <mxCell id="DdrYIgBrap5mWLzCfkBp-23" style="edgeStyle=orthogonalEdgeStyle;rounded=0;orthogonalLoop=1;jettySize=auto;html=1;" parent="1" source="DdrYIgBrap5mWLzCfkBp-19" target="DdrYIgBrap5mWLzCfkBp-20" edge="1">
          <mxGeometry relative="1" as="geometry" />
        </mxCell>
        <mxCell id="DdrYIgBrap5mWLzCfkBp-19" value="Бухгалтериские данные" style="rounded=0;whiteSpace=wrap;html=1;" parent="1" vertex="1">
          <mxGeometry x="760" y="380" width="120" height="60" as="geometry" />
        </mxCell>
        <mxCell id="DdrYIgBrap5mWLzCfkBp-20" value="искажение&amp;nbsp;&lt;div&gt;данных&lt;/div&gt;" style="shape=parallelogram;perimeter=parallelogramPerimeter;whiteSpace=wrap;html=1;fixedSize=1;" parent="1" vertex="1">
          <mxGeometry x="960" y="440" width="120" height="60" as="geometry" />
        </mxCell>
        <mxCell id="DdrYIgBrap5mWLzCfkBp-21" value="критический" style="shape=hexagon;perimeter=hexagonPerimeter2;whiteSpace=wrap;html=1;fixedSize=1;fillColor=#f8cecc;strokeColor=#b85450;size=30;" parent="1" vertex="1">
          <mxGeometry x="1325" y="320" width="100" height="60" as="geometry" />
        </mxCell>
        <mxCell id="bEcZVD-vaj6JLPjVV4eH-17" value="Данные могут попасть в публичный доступ" style="text;html=1;align=left;verticalAlign=middle;whiteSpace=wrap;rounded=0;" vertex="1" parent="1">
          <mxGeometry x="1120" y="155" width="130" height="70" as="geometry" />
        </mxCell>
        <mxCell id="bEcZVD-vaj6JLPjVV4eH-18" value="Кража финансовой информации может привести к финансовым потерям компании и клиентов." style="text;html=1;align=left;verticalAlign=middle;whiteSpace=wrap;rounded=0;" vertex="1" parent="1">
          <mxGeometry x="1120" y="320" width="130" height="70" as="geometry" />
        </mxCell>
        <mxCell id="bEcZVD-vaj6JLPjVV4eH-19" value="Возможено внесение изменений без&amp;nbsp; следов. Нет журналирования" style="text;html=1;align=left;verticalAlign=middle;whiteSpace=wrap;rounded=0;" vertex="1" parent="1">
          <mxGeometry x="1120" y="445" width="130" height="70" as="geometry" />
        </mxCell>
        <mxCell id="bEcZVD-vaj6JLPjVV4eH-20" value="Утечка персональных данных приведёт к штрафам и потере доверия клиентов." style="text;html=1;align=left;verticalAlign=middle;whiteSpace=wrap;rounded=0;" vertex="1" parent="1">
          <mxGeometry x="1120" y="570" width="140" height="70" as="geometry" />
        </mxCell>
        <mxCell id="bEcZVD-vaj6JLPjVV4eH-23" value="критический" style="shape=hexagon;perimeter=hexagonPerimeter2;whiteSpace=wrap;html=1;fixedSize=1;fillColor=#f8cecc;strokeColor=#b85450;" vertex="1" parent="1">
          <mxGeometry x="1324.5" y="715" width="100" height="60" as="geometry" />
        </mxCell>
        <mxCell id="bEcZVD-vaj6JLPjVV4eH-25" value="Несанкционированное изменение цен или характеристик может ввести в заблуждение клиентов и нанести ущерб репутации." style="text;html=1;align=left;verticalAlign=middle;whiteSpace=wrap;rounded=0;" vertex="1" parent="1">
          <mxGeometry x="1120" y="865" width="170" height="70" as="geometry" />
        </mxCell>
        <mxCell id="bEcZVD-vaj6JLPjVV4eH-26" value="Утечка персональных данных приведёт к штрафам и потере доверия клиентов." style="text;html=1;align=left;verticalAlign=middle;whiteSpace=wrap;rounded=0;" vertex="1" parent="1">
          <mxGeometry x="1120" y="705" width="140" height="70" as="geometry" />
        </mxCell>
        <mxCell id="bEcZVD-vaj6JLPjVV4eH-32" style="edgeStyle=orthogonalEdgeStyle;rounded=0;orthogonalLoop=1;jettySize=auto;html=1;" edge="1" parent="1" source="bEcZVD-vaj6JLPjVV4eH-29" target="bEcZVD-vaj6JLPjVV4eH-31">
          <mxGeometry relative="1" as="geometry" />
        </mxCell>
        <mxCell id="bEcZVD-vaj6JLPjVV4eH-29" value="Системные и технические данные" style="rounded=0;whiteSpace=wrap;html=1;" vertex="1" parent="1">
          <mxGeometry x="760" y="972.5" width="120" height="60" as="geometry" />
        </mxCell>
        <mxCell id="bEcZVD-vaj6JLPjVV4eH-31" value="искажение&amp;nbsp;&lt;div&gt;данных&lt;/div&gt;" style="shape=parallelogram;perimeter=parallelogramPerimeter;whiteSpace=wrap;html=1;fixedSize=1;" vertex="1" parent="1">
          <mxGeometry x="960" y="972.5" width="120" height="60" as="geometry" />
        </mxCell>
        <mxCell id="bEcZVD-vaj6JLPjVV4eH-33" value="Утечка системных данных &#xa;облегчит кибератаки.&#xa;Несанкционированный доступ к логам может скрыть следы инцидентов безопасности." style="text;whiteSpace=wrap;" vertex="1" parent="1">
          <mxGeometry x="1120" y="972.5" width="190" height="97.5" as="geometry" />
        </mxCell>
        <mxCell id="bEcZVD-vaj6JLPjVV4eH-34" value="значительный" style="shape=hexagon;perimeter=hexagonPerimeter2;whiteSpace=wrap;html=1;fixedSize=1;fillColor=#ffe6cc;strokeColor=#d79b00;" vertex="1" parent="1">
          <mxGeometry x="1320" y="972.5" width="100" height="65" as="geometry" />
        </mxCell>
      </root>
    </mxGraphModel>
  </diagram>
</mxfile>
